<mxfile host="app.diagrams.net" agent="Mozilla/5.0 (Windows NT 10.0; Win64; x64) AppleWebKit/537.36 (KHTML, like Gecko) Chrome/138.0.0.0 Safari/537.36" version="28.1.0">
  <diagram name="Página-1" id="8xJ436qdTgn59BJ4mvmi">
    <mxGraphModel dx="689" dy="894" grid="1" gridSize="10" guides="1" tooltips="1" connect="1" arrows="1" fold="1" page="1" pageScale="1" pageWidth="827" pageHeight="1169" math="0" shadow="0">
      <root>
        <mxCell id="0" />
        <mxCell id="1" parent="0" />
        <mxCell id="LLWVxUTHM7mcBQkjImZl-1" value="" style="shape=image;verticalLabelPosition=bottom;labelBackgroundColor=default;verticalAlign=top;aspect=fixed;imageAspect=0;image=data:image/png,iVBORw0KGgoAAAANSUhEUgAAAOQAAADdCAMAAACc/C7aAAAAilBMVEUybOX///8qaOQvauUnZ+QhZOQcYuRvkusTX+MaYeQNXeNylOsAW+Po7fv2+P7y9f3j6fu7yvTL1veit/GasfA5cObu8vyLpu5chemrvvLa4vlCdebV3vjD0PZmjOrP2fdSf+h6muxfh+lJeueEoe22xvSds/CUre+pvPKAnu09c+aNp+4AV+IAU+K2X0UUAAATuklEQVR4nO1d6XrrKrKVBciSPMSO43mO48SxT7//612PEgUFohBK99e369/eSRBLQLFqVNT6fyDRv3sCfyH/AxlcJsfpZrfbTIdvf/rYvwT5PssTHjMW8yT/fP/DB/8dyOEyi6NC4uyw/rNH/xXI4zhhERCWjY9/9PC/AXmKRaQLS+L5nzz+L0B+CwziXYQY/cEEGgfZ/8kEM2G8rqbIfvpNz6FhkJOvnJsRPoSn00mzs2gUZG9fDfEOM//tNTmPBkEu2l0niA+Y7UFzM2kM5Oozj6vBlRLnn6um5tIQyPddSoL4gLlriAY1AnINyA0BZkM0qAGQx3FmuTPs0gwNCg5yzlT+RoSZsOA0KDDIkZncuEsSmgaFBFlBbggSmAaFAzmZps7XogPMkDQoFMjerxu5cZeANCgMyEEnNMQHzE4YGhQC5GpDIzfuEuebEDSoPsj3XVMQHzAD0KC6INcHP3JDgFmfBtUDOaxBbtzlSoOG/zaQ86geuSHATKI6NMgf5Ignf4PwIQn3p0GeIPsfWQD+RhN/GuQF8u2SevM3kSS+r4ddaZBXfMEDZB1yE7P5YDCPvRWyHw0igxx03D03OsbDY5CD/7XjQ4OIIBf1yE323G1vaY1B6DSIBHI7o3tuZOFfr5F+a1HdOJ9tGwK5PtSDeL0Gijt9WPP6odEgZ5DDc31ykxQ09L32HcuyszMNcgR5DEJukmKTbQMQCXca5ATyFIjciGKLrcNQCUcaVA2y/+F9e6tSOqhGwYZMPqppUBXIOuRGk3j/GnYfzD670qBLFQ2yg3xziLxRJrR8DbwMab7w7q8dphXkPKT/7SbZa+Qs7Lg8t6ogG8h24KlEUfp845M6jAeVrO0HchbemEoWj6EXwV9fJD59QO4bMBhfbGDdgL0t9nSQwzz8PCLxDFkdm7C4UyPRM4JsxPAXT/1wamZ0KshgtzWcxpMNfDcz+okIsolJlCCbeYXRmAZyEVzH3yVp8kxeT+WCBLKhV82fw/fDXyE3EQZKYADZbiBIVV6TrdagEZ9t3CGBDEfK5TlI6k80EkHhOBoc5CDskWSxEFkezX7LJ3QOIs0ED/wuU9xfiYMMqRhikYr291r3I/ZXx+kuzUICTXCPCA6ynjNNEp5k7bnVT7r9OOTB9m7pDnQAOQ7yyDhJfl0iqJP5LA+zdUqDtRrkWwjeyvNPd6/h5JsFCebmqC8EBVllJLDKY3SLzRCDFu8zBxOdxfZHJ+jOQUH+2J4Wp9GOV/hgRebgXtKkMgYR58v2wfo7/MMZ5M4yDp/d9MjqYDlEcfpDR/iAOUstby/b3DbHZGN79MwZZNdhlC8TM2N5p0aR0vvYeFTyl0Pz07IGuSvIlYVZZsV9MMIJgxjXzLwZGSIu3eIOHFjml2AcHQNpMWmZRJx+sGfll3oQrzLZYYuZSuTbohdRjo6BbFu2g2yy7bWHcRYkj3yUayczk4+5hSShHB0DaWPnYM+3lSXPNiEgXmUQKfo9m0o/tV7jGEdHQFrZOdwOEGX32zLt4c8mkZI7J8nmZ225STdglySArlmdJxhHR0Ba2TkTIA1VRpmaKNzbcc/ThMcyHennMRc5+12b7tMf6VWn4KDbvRYYR0dAflmJB+OAb/++tA8TOA/vH2d58jjkYKs/ttwV6MZA/o7FRQZ3yLudiGAcHQF5to1xmytwio2692fGEZpovPiVTIxM/kmhmq80/oL+7ftN/TAW52BtLhW8GuPoOshqdp4s5Y25GueJiMfYttvOQFAMONMkQ4fxLpq2skpZEouZ/KMjWogJ10CfiQ7SIZzP0pl8vPuteYxgXMwgzWQH+acHsOni7h5ZzZVyzFdnB9cQwtF1kFZ2Xkwqr6Kn/X1XuW5jEJJRuRnPUW4ty16/PhFBOLoOcuZm14mxwcn5kGGmvasYRNd0xiEiK5NYCzd3BcLRdZCuPixmWcz+BlGB/Ff+FcTDwrpT04DXZXT2raXVIG3sXBGB2jVXWXDspXMAYYr9ijgYikHezu7+EZ2jayApASeOu1TmuKkGD8sHuvniDM8n4wTfiM7RNZA2dq4JSnKmhjsIBp0ML5N1MTPiSHG46xxdA0nynWOVY23ThAQoGjSSR+yoO2n8lzCNo6sgib7zTFvKQWSavQDMxZiTJQ6aY2FOm5TG0VWQpI1RZunK8mvYrvCWNnAOliOmDNHJrnF0FaSdnWuSY9rwHfeIZ+AaxLU4R2/fFc0PrHF0FeSZ9NIEzlL6n9gyZWD+WJYLS3/R8Vp70qvXOLoCkpo3jc/peooQBgaPSk9/UpyYXO7EoK3K0ZVp0pJtM3NabW+pKZYUKBT9dWYzs0OaFvlWOboCkqarEa1TykWlBIpLVDlnLDflbtyFFChROboC0pGdP0S/P4CsFHKncEq4kmJpL4QgRUxVjq6ApBxJQ5xMkjYYjsEfgkNro+YPIake5X1CkAR2ft35UE1g5/Moe8PP8GeSl4VzjLHCrgqkJC6Fo0f+I8GVmf8Lc0hOdsWIbAd/tCuWEk/j/PoXRE55/wpHhyA7FLIPeWsSZWgs++N1mXDlDnxZAnGKNsLYCOU4oLaZQRSODkFS+FMOboSbw1egK7J4esPVJMbjY2kS3IS87QB4Q5FYNeToACRyQZuHgSGBuydAKDvyKfs8ZkwPIWySmPEu6l54O99eDIO5cjvCCkDiAUBSiosEWJjnZc3PaGhyOxNnxCib78579OIYPG3kDDxjTlAYkKMDkBR2DrX06yzHPED7g9Ur3AzZBiVdA3J0AJLAzuHRXheqj6W1g3fDkvfCtEcCU4FKSwbZJ7wquB825eNZt165fOsk0UG4IJT9Cji6DJLCzoFuhRupW6ubzlRWfiyRf0TRr4CjyyBxBxoqcDsoxDKt5Ghm6cAXDe0JgsoAHF0GSdjz0Ie6Uf4wMeSdVotaiwIZBKHCC3B0GSRlN4CDp51lo9vZLv2lulbQ80YxRWTtL4GklN2Ayxap+ORLj4ysHlKan8lXEmWGMkeXQFKUF4inYmc5jsn9ABZYCBlSbcJek/9QAklg59CiQDOkWGaNeumyRi+wsuTyJoSKRPkil0AS2DnUBwane5dEC4aGXDfAXylWknSaS5AUdg7MrImJQ2T6uVys7qIvcu8fwyCpPAjhkpPVRgmSws6Bct2a1IEeKdn+k93lH80TYPSgASOfol6lOZYgKew82bo8WTWTW5NCtSSqtWK8AoG1Q+FkEiUsQVLKjIFiN/pENf/6uUASq06wD+MgsqdyQQApkbICJIWdR6lszV8MW4B1FZtfLhviCimamHJsuWxVU/SGxNELkCTfOdAG+E5joqv4Oz7A2c2UA7vNEnQcsOdJK1Hy3gIkRXFBixnR67HIl9/KsRso+vMflS3MP9NEnwQ0XEl+nuK0FCBJvnMAUgnAM55l7SPinVImmOm/0XqfRqkS9+NtyxhWKTl6AZIUAjSCjEV6/jH0yoGvMTZUkw9On7m8oDFwgJGCbkXw5QWSorfU1N7X5O9LaKas8CoUluTY9Ve5oP4rWV6xL5AUdq6s5F3xXJdwfLG3O4KqLbH/8uA0eyyo/5ksOfoLJIUVKlfIVPAk3cwrrQ4YkcQLjmTpr794KoS3di3fzwskLVUgkxH98Itb486xRDeqQ2J3GYx2si+LdE+WHD3y+muQ4+BsHp/K7NeKjiQmIbbTeHH0J0hiYy7h14z02Xna//MZxNZaL47+BEnMbDG2LaiUb3EVi2K1y5y2ki+O/gRJawIkeI2286Mabtn1gbSUr4P/AEnTWqn3OtaXI2mmTxX+AEnY67Goju83KR9dwSsqRUt5cvQHyEp2HnPORZKl6bhzavDrJS7yNrx88jTLrme7Eu2Toz9A2tk5z5LP38vHabiiuRkXw7lb8Kc3+jm90xrY97bD+enj95xamdqToz9AWm/J9IvoXLze4euP9jjNkuviO3S2PF53oEjSZPc131J79b99WxXug3/eQVrv2IzkWRysvzvnWy+I195A8yjhn7wMTXaDKmZEqAPbWj44+h2kjZ0bmjDo0luP9ofu9ajArV99KSppHfEVai5m0/nKsWr43bJED45+B2ll5y7POe4PaZoITA/wfdUfo1nvV6hZyj+d6motxWUPjn7HYKssrZzjTUbmovLqlTQnLbJESw3C6KAloveIit1A2tg5V3Nz+uvpIZ9tJ8Dw6JtHqM4hsNRD5uC6Oi6GvCvamlGnhkfB43tPkDZ2zmALseEmv/WXiZP0H6ByjR1RXEwqY4IOzHbs/ZMl97Y36XIEcNrU5l2l3ECaHKd34eWx2HbS0m3IwXEZmNiWqaMTeHMmvQdzTUsnNhP5rtSH1tzt+zRvIG3LfX0XDxY3mZ9hCxKY2WWqmdELpxAxhMWUpGGQgBML8XPfSxNjHcpjlpsnyIp8Lp61p/ux1uYVZoIallIvvj22O5oJY1A9sH5ITVNlPEln7apm1/dIqgPIWz4qMpKSHoxvmlwluocsjjM1Ba+Hxghi+GvYPRdXUvX4BXLj10cJAkAT/rVaxq/7uRJquAs9MHB8zx5B99uhUvFY/n4PJjpHzoZaA/FaslxhwxhpUXY6qQRAGuWleIzarUIUWoo0uFFLw14rpq0wMnoMf8Oznd/dG3UD2be0prGJEmTVOYVaurAqfkOtSdRjnF1ovhjjlxXS7T9B0mom5REg9ziqKFULpKxIV/J1dcokoPvBty/jo476DpJY8FUOoWQjK819Y4USDqWZJgpJUJQzV+pqKAnosuSlqeXdOjJVTGL4HRDVYAbqXuk4qxBYDok4fsdUy5N5P711njte23XyvaX+EJ47oSSfg+YK6vVKCp5KwmVvXWvl+arU3IeedI8otLWvZJXB+jRQndpV1NLQ80TmTwuoCN35jqO8c6l/VQq3nOqkV63p8jMWarJB3/MLF6kauvPtCK6ZUoPXgqkXjLZXupARFJREy++2GxBGKXlV6d3w/HiQUF3NvSfRVXoD6zNVGEHvqeJzNQ7ouckk6luC9FU+uRrheqTmKqVZ2C2lMILPR8Ra9X8aTdUKkRS0nNTrOZrelaqTqQX3SmeahzBYh3eru0Dq7yO/A5njSb06Y3ET9apo3UqaY8Vtglq2CiNgLNdr2j79rnBQ5QY8jr9+O5brGeeDMXQmGv4Svolv7ThedbJfB2phrvCxdsq0DYmU24FtNzJMFTKCN92bbOjlWCWKToMg+57MQrOCoag8oJTc7iWnRSMLYQxe0YqDfODJfHQvsCxmem33r/t+6UJlKFrvD8/m4IllLXuWuWpOIHkuvhiren+0pp695vEy2LvYfEix6tQq5eTLp7UAincjMH1s03T7HZHhLU9inmUbU5ju4rmnuJ6ZiAStPG/fiI+NgejVaCPSRPBbCc+tK3V8i8+l6ezDHKK1+4zNwjBE+n/58qiImT8wc5Xe+2nanp0jLqLzrD09IT3uS5loVVuu4tgV1FBr4yIIY/GStfdHIFUzzQiydfHuLy/OIXJD3HvUqZKgxe54INmTMEa3EoLKbolVsmXeT+d4q2BDtHzsqXyiyv6LVfLW8f+MB2Iq2EASU0OB2O73ajEWbTlgNHwuxASy9e6tfPCm8u7i6eyIEJ9CFcjWh+9XdvTeeDTxPiiZMQXDnMHiGdAzfmPGUYyFilWipXC4gCR2dyuElVUt64vr8TyW15vnu43P5tEtICd+3yyWKsgikS6/K3Xt5Ni+Ur7in36fiGOZJVXNlnC19TIDCp/yaBzf883F/mgEOllflveUEjYuTpTXu+3aEhWtWWUjD49nETi4FL1YYpHlu6/TeiG97P5ge7xsRF5+dSp7WaQnD5Wn1vARQPpEu16dsxQfA+NCZGmeRePl8krS8zxL1Jzc4n6lMxFhb1FRkR+4pF5ahSFiTCG6mVooisIVsqUqWK2ulgbyjbh1irAsLXX/IUVlE60/5nUhK5JGqzI9iTG9Ih7n8421otqEGLGobGhQmc56oiiftHAh+ThRyggZiVRmlel71Tm7hJheWY3tx1tKav/l/lDLV33dQRJieiVr9fuyrcQjnD9EhzVE9gD55jphqT02FsRykNIeXLueEuFQ2uaSYr5wVD5lDpUvy5a4vSNz7rpY6E559G4tuqX8K2KlYiFSLoVbb168D6UXSLeYnlRU6ZviJRncTuVjFYEmGkinmF4J0v/TjnmxX11AWmIMPiD7Dhyk3K6+SWJylOvb5YmO9bSOIJ2Uz0vxeLvgozK/yMV2VrNma4N0iek9HRCDOp8EZc/+A7YvEz7FTemQQLqQED6eb9e/9T5/zNLNcf3NqjEm7rWq7iBd6CgTieOXdiwSC5cxKJ5PAshW9adg/04Yq56vF8g6CiW0kNz0FJDeiQrhRUsLCAeyRkwvrOhpAQFB1ojphRQkLSAkSO+EgpCCpQUEBVknphdKyMEWKsjW2jO7JpygaQFhQbZ+fGN6gQRPCwgM0j+mF0QMaQGhQdZJKKgtprSA4CAntq+4N4wxpfbN8AVZI6GgrhjTAsKDbNm7ijQn5rSABkB6V7DVE0taQBMg6TG9AFIVoQsO0jOhoI5Y0wIaAUmPlNaW3KF/UWCQXgkFdcSeFtAQyFbnT43LirSApkD61ul5iUuErhGQb6SP5NYSVpUW0BjIVg8vEggvsaiVr1cLZGuy/BO7K1n6Xh4hQF6ty27j3IfndTO+64Jsvf3wW5e6hoSLjP/UOY5hQF5lMZ922tXSsQn+0/1lXiuh/SkhQP7Hy/9A/rfI/wFwoBtcY5+8QwAAAABJRU5ErkJggg==;" vertex="1" parent="1">
          <mxGeometry x="90" y="250" width="82.54" height="80" as="geometry" />
        </mxCell>
        <mxCell id="LLWVxUTHM7mcBQkjImZl-2" value="Apresentação" style="whiteSpace=wrap;html=1;verticalAlign=top;labelBackgroundColor=default;" vertex="1" parent="1">
          <mxGeometry x="190" y="230" width="196.19" height="30" as="geometry" />
        </mxCell>
        <mxCell id="LLWVxUTHM7mcBQkjImZl-4" value="REST/JSON" style="whiteSpace=wrap;html=1;verticalAlign=top;labelBackgroundColor=default;" vertex="1" parent="1">
          <mxGeometry x="190" y="270" width="196.19" height="30" as="geometry" />
        </mxCell>
        <mxCell id="LLWVxUTHM7mcBQkjImZl-5" value="REST/JSON" style="whiteSpace=wrap;html=1;verticalAlign=top;labelBackgroundColor=default;" vertex="1" parent="1">
          <mxGeometry x="190" y="309" width="196.19" height="30" as="geometry" />
        </mxCell>
        <mxCell id="LLWVxUTHM7mcBQkjImZl-6" value="REST/JSON" style="whiteSpace=wrap;html=1;verticalAlign=top;labelBackgroundColor=default;" vertex="1" parent="1">
          <mxGeometry x="190" y="350" width="196.19" height="30" as="geometry" />
        </mxCell>
        <mxCell id="LLWVxUTHM7mcBQkjImZl-21" value="" style="group" vertex="1" connectable="0" parent="1">
          <mxGeometry x="190" y="570" width="499.28" height="150" as="geometry" />
        </mxCell>
        <mxCell id="LLWVxUTHM7mcBQkjImZl-7" value="APRESENTAÇÃO" style="whiteSpace=wrap;html=1;verticalAlign=top;labelBackgroundColor=default;" vertex="1" parent="LLWVxUTHM7mcBQkjImZl-21">
          <mxGeometry y="60" width="196.19" height="30" as="geometry" />
        </mxCell>
        <mxCell id="LLWVxUTHM7mcBQkjImZl-20" value="" style="group" vertex="1" connectable="0" parent="LLWVxUTHM7mcBQkjImZl-21">
          <mxGeometry x="249.27999999999997" width="250" height="150" as="geometry" />
        </mxCell>
        <mxCell id="LLWVxUTHM7mcBQkjImZl-16" value="" style="rounded=1;whiteSpace=wrap;html=1;" vertex="1" parent="LLWVxUTHM7mcBQkjImZl-20">
          <mxGeometry width="250" height="150" as="geometry" />
        </mxCell>
        <mxCell id="LLWVxUTHM7mcBQkjImZl-19" value="" style="group" vertex="1" connectable="0" parent="LLWVxUTHM7mcBQkjImZl-20">
          <mxGeometry x="26.720000000000027" y="21" width="196.37999999999988" height="108" as="geometry" />
        </mxCell>
        <mxCell id="LLWVxUTHM7mcBQkjImZl-8" value="SDKs" style="whiteSpace=wrap;html=1;verticalAlign=top;labelBackgroundColor=default;" vertex="1" parent="LLWVxUTHM7mcBQkjImZl-19">
          <mxGeometry x="0.18999999999994088" y="39" width="196.19" height="30" as="geometry" />
        </mxCell>
        <mxCell id="LLWVxUTHM7mcBQkjImZl-12" value="APIs REST" style="whiteSpace=wrap;html=1;verticalAlign=top;labelBackgroundColor=default;" vertex="1" parent="LLWVxUTHM7mcBQkjImZl-19">
          <mxGeometry width="196.19" height="30" as="geometry" />
        </mxCell>
        <mxCell id="LLWVxUTHM7mcBQkjImZl-14" value="kubectl / CLI" style="whiteSpace=wrap;html=1;verticalAlign=top;labelBackgroundColor=default;" vertex="1" parent="LLWVxUTHM7mcBQkjImZl-19">
          <mxGeometry y="78" width="196.19" height="30" as="geometry" />
        </mxCell>
        <mxCell id="LLWVxUTHM7mcBQkjImZl-11" value="" style="edgeStyle=orthogonalEdgeStyle;rounded=0;orthogonalLoop=1;jettySize=auto;html=1;entryX=0;entryY=0.5;entryDx=0;entryDy=0;" edge="1" parent="LLWVxUTHM7mcBQkjImZl-21" source="LLWVxUTHM7mcBQkjImZl-7" target="LLWVxUTHM7mcBQkjImZl-16">
          <mxGeometry relative="1" as="geometry">
            <mxPoint x="270" as="targetPoint" />
          </mxGeometry>
        </mxCell>
        <mxCell id="LLWVxUTHM7mcBQkjImZl-22" value="" style="group" vertex="1" connectable="0" parent="1">
          <mxGeometry x="190" y="370" width="499.28" height="150" as="geometry" />
        </mxCell>
        <mxCell id="LLWVxUTHM7mcBQkjImZl-23" value="CONTROLE" style="whiteSpace=wrap;html=1;verticalAlign=top;labelBackgroundColor=default;" vertex="1" parent="LLWVxUTHM7mcBQkjImZl-22">
          <mxGeometry y="60" width="196.19" height="30" as="geometry" />
        </mxCell>
        <mxCell id="LLWVxUTHM7mcBQkjImZl-24" value="" style="group" vertex="1" connectable="0" parent="LLWVxUTHM7mcBQkjImZl-22">
          <mxGeometry x="249.27999999999997" width="250" height="150" as="geometry" />
        </mxCell>
        <mxCell id="LLWVxUTHM7mcBQkjImZl-25" value="" style="rounded=1;whiteSpace=wrap;html=1;" vertex="1" parent="LLWVxUTHM7mcBQkjImZl-24">
          <mxGeometry width="250" height="150" as="geometry" />
        </mxCell>
        <mxCell id="LLWVxUTHM7mcBQkjImZl-26" value="" style="group" vertex="1" connectable="0" parent="LLWVxUTHM7mcBQkjImZl-24">
          <mxGeometry x="26.720000000000027" y="21" width="196.37999999999988" height="108" as="geometry" />
        </mxCell>
        <mxCell id="LLWVxUTHM7mcBQkjImZl-27" value="etcd" style="whiteSpace=wrap;html=1;verticalAlign=top;labelBackgroundColor=default;" vertex="1" parent="LLWVxUTHM7mcBQkjImZl-26">
          <mxGeometry x="0.18999999999994088" y="39" width="196.19" height="30" as="geometry" />
        </mxCell>
        <mxCell id="LLWVxUTHM7mcBQkjImZl-28" value="kube-apiserver" style="whiteSpace=wrap;html=1;verticalAlign=top;labelBackgroundColor=default;" vertex="1" parent="LLWVxUTHM7mcBQkjImZl-26">
          <mxGeometry width="196.19" height="30" as="geometry" />
        </mxCell>
        <mxCell id="LLWVxUTHM7mcBQkjImZl-29" value="kube-scheduler" style="whiteSpace=wrap;html=1;verticalAlign=top;labelBackgroundColor=default;" vertex="1" parent="LLWVxUTHM7mcBQkjImZl-26">
          <mxGeometry y="78" width="196.19" height="30" as="geometry" />
        </mxCell>
        <mxCell id="LLWVxUTHM7mcBQkjImZl-30" value="" style="edgeStyle=orthogonalEdgeStyle;rounded=0;orthogonalLoop=1;jettySize=auto;html=1;entryX=0;entryY=0.5;entryDx=0;entryDy=0;" edge="1" parent="LLWVxUTHM7mcBQkjImZl-22" source="LLWVxUTHM7mcBQkjImZl-23" target="LLWVxUTHM7mcBQkjImZl-25">
          <mxGeometry relative="1" as="geometry">
            <mxPoint x="270" as="targetPoint" />
          </mxGeometry>
        </mxCell>
      </root>
    </mxGraphModel>
  </diagram>
</mxfile>
